<svg id="Capa_1" enable-background="new 0 0 512.001 512.001" height="512" viewBox="0 0 512.001 512.001" width="512" xmlns="http://www.w3.org/2000/svg"><g><g><g><path d="m504.5 151.255v30.312c0 2.582-1.37 5.177-4.122 6.45l-241.383 112.01c-1.904.885-4.086.885-5.99 0l-241.383-112.009c-2.752-1.273-4.122-3.868-4.122-6.45v-30.312c0 2.582 1.37 5.177 4.122 6.45l18.745 8.706 222.638 103.304c1.904.885 4.086.885 5.99 0l222.638-103.304 18.745-8.706c2.752-1.273 4.122-3.868 4.122-6.451z" fill="#21386b"/></g></g><g><g><path d="m253.003 32.787-241.375 112.006c-5.498 2.551-5.498 10.367 0 12.918l241.375 112.006c1.901.882 4.094.882 5.994 0l241.375-112.007c5.498-2.551 5.498-10.367 0-12.918l-241.375-112.005c-1.901-.882-4.093-.882-5.994 0z" fill="#30579d"/></g></g><g><g><path d="m408.563 230.623-149.569 69.405c-1.904.885-4.086.885-5.99 0l-149.569-69.405-24.552 91.808c-1.052 3.932.498 8.1 3.863 10.39l12.571 8.555c96.96 65.982 224.402 65.982 321.363 0l12.571-8.555c3.365-2.29 4.915-6.458 3.863-10.39z" fill="#30579d"/></g></g><g><g><path d="m433.116 322.431-24.552-91.808-30.826 14.304 15.378 57.504c1.052 3.932-.498 8.1-3.863 10.39l-12.571 8.555c-79.982 54.428-180.705 63.958-267.951 28.592 95.077 57.253 215.4 54.39 307.951-8.592l12.571-8.555c3.365-2.29 4.914-6.457 3.863-10.39z" fill="#26457d"/></g></g><g><g><path d="m383.524 430.587h-29.955c-.752 0-1.362-.61-1.362-1.362v-14.978c0-9.024 7.315-16.339 16.339-16.339 9.024 0 16.339 7.315 16.339 16.339v14.978c.001.752-.609 1.362-1.361 1.362z" fill="#ffe07d"/></g></g><g><g><path d="m390.89 472.135-7.504-41.548h-29.678l-7.504 41.548c-.179.989.302 1.98 1.188 2.452 13.224 7.043 29.086 7.043 42.31 0 .887-.473 1.367-1.464 1.188-2.452z" fill="#e28086"/></g></g><path d="m8.465 194.821 86.098 39.953-22.923 85.718c-1.875 7.005.894 14.452 6.889 18.53l12.57 8.555c81.848 55.697 183.177 64.721 269.948 31.365v12.676c-9.481 3.15-16.339 12.104-16.339 22.63v14.978c0 1.407.33 2.738.916 3.921l-6.802 37.655c-.761 4.212 1.266 8.394 5.044 10.405 15.453 8.23 33.905 8.231 49.361 0 3.778-2.012 5.805-6.194 5.044-10.406 0 .1-.103-.569-6.802-37.655.586-1.183.916-2.514.916-3.921v-14.978c0-10.526-6.857-19.48-16.339-22.63v-18.927c25.862-11.634 41.214-22.636 57.425-33.668 5.995-4.08 8.764-11.526 6.889-18.528l-8.296-31.021c-1.07-4.002-5.188-6.378-9.183-5.308-4.002 1.07-6.378 5.182-5.308 9.183l8.296 31.023c.228.85-.109 1.754-.838 2.25-16.196 11.021-28.038 19.482-48.985 29.575v-102.216l27.577-12.797 4.754 17.776c1.069 3.996 5.176 6.379 9.183 5.308 4.002-1.07 6.378-5.182 5.308-9.183l-5.431-20.31 86.09-39.949c5.227-2.417 8.474-7.498 8.474-13.257 0-32.406.006-30.397-.01-30.711-.145-5.594-3.358-10.5-8.46-12.867l-241.376-112.006c-3.912-1.816-8.399-1.816-12.31 0l-164.777 76.462c-3.757 1.744-5.39 6.203-3.646 9.96s6.2 5.39 9.961 3.646l164.617-76.388 240.473 111.587-127.512 59.169c-.646-.447 6.458 3.841-109.098-65.599-3.549-2.132-8.158-.985-10.292 2.565-2.134 3.551-.984 8.158 2.565 10.292l100.429 60.349-96.565 44.812-240.473-111.588 43.805-20.327c3.757-1.744 5.39-6.203 3.646-9.96-1.742-3.757-6.203-5.391-9.96-3.646l-44.547 20.672c-5.321 2.468-8.471 7.627-8.471 13.265v30.313c0 5.76 3.247 10.84 8.465 13.253zm345.826 274.734 5.684-31.468h17.145l5.685 31.468c-9.142 3.761-19.375 3.761-28.514 0zm29.219 3.913c0-.004-.001-.008-.002-.012 0 .001.002.011.002.012zm-6.124-50.381h-17.678v-8.839c0-4.874 3.965-8.839 8.839-8.839s8.839 3.965 8.839 8.839zm119.614-255.544v13.774c-39.351 18.26-19.959 9.261-120.953 56.126 0-10.259.001-13.57-.002-13.773zm-247.154 108.976c3.912 1.814 8.396 1.815 12.309 0l98.893-45.889v13.774l-105.048 48.746-80.444-37.329c-3.759-1.742-8.217-.111-9.96 3.646-1.744 3.757-.111 8.216 3.646 9.96l80.604 37.403c3.909 1.816 8.395 1.819 12.308.001l98.895-45.891v101.948c-85.372 35.113-183.034 25.689-261.509-27.713l-12.571-8.556c-.729-.495-1.064-1.399-.837-2.251l22.246-83.185 28.555 13.25c3.765 1.746 8.22.105 9.961-3.646 1.743-3.757.11-8.216-3.646-9.96-249.964-115.991 124.327 57.694-128.248-59.51v-13.774z"/></g></svg>