<svg height="512" viewBox="0 0 512 512" width="512" xmlns="http://www.w3.org/2000/svg" xmlns:xlink="http://www.w3.org/1999/xlink"><linearGradient id="New_Gradient_Swatch_15" gradientUnits="userSpaceOnUse" x1="-128.872" x2="414" y1="740.872" y2="198"><stop offset=".015" stop-color="#cacad5"/><stop offset="1" stop-color="#dcdce3"/></linearGradient><linearGradient id="New_Gradient_Swatch_3" gradientUnits="userSpaceOnUse" x1="-89.897" x2="398" y1="669.897" y2="182"><stop offset=".011" stop-color="#606082"/><stop offset="1" stop-color="#83839e"/></linearGradient><linearGradient id="New_Gradient_Swatch_22" gradientUnits="userSpaceOnUse" x1="132.25" x2="380.75" y1="444.25" y2="195.75"><stop offset=".011" stop-color="#dcdce3"/><stop offset="1" stop-color="#ededf1"/></linearGradient><linearGradient id="New_Gradient_Swatch_11" gradientUnits="userSpaceOnUse" x1="212" x2="300" y1="436" y2="348"><stop offset=".011" stop-color="#60c6be"/><stop offset="1" stop-color="#80d1cb"/></linearGradient><linearGradient id="New_Gradient_Swatch_13" gradientUnits="userSpaceOnUse" x1="262" x2="314" y1="70" y2="18"><stop offset="0" stop-color="#d46669"/><stop offset="1" stop-color="#dd888a"/></linearGradient><linearGradient id="New_Gradient_Swatch_5" gradientUnits="userSpaceOnUse" x1="239.029" x2="272.971" y1="224.971" y2="191.029"><stop offset=".011" stop-color="#f8c73f"/><stop offset="1" stop-color="#fada7f"/></linearGradient><linearGradient id="New_Gradient_Swatch_11-2" x1="298" x2="342" xlink:href="#New_Gradient_Swatch_11" y1="314" y2="270"/><linearGradient id="New_Gradient_Swatch_11-3" x1="170" x2="214" xlink:href="#New_Gradient_Swatch_11" y1="314" y2="270"/><linearGradient id="New_Gradient_Swatch_5-2" x1="350" x2="434" xlink:href="#New_Gradient_Swatch_5" y1="494" y2="410"/><linearGradient id="New_Gradient_Swatch_5-3" x1="376" x2="408" xlink:href="#New_Gradient_Swatch_5" y1="368" y2="368"/><g id="_16-alarm" data-name="16-alarm"><g id="linear_color" data-name="linear color"><path d="m16 280h480v152h-480z" fill="url(#New_Gradient_Swatch_15)"/><path d="m16 280h480v88h-480z" fill="url(#New_Gradient_Swatch_3)"/><path d="m393 432h-273v-224l136-88 137 88z" fill="url(#New_Gradient_Swatch_22)"/><path d="m208 352h96v80h-96z" fill="url(#New_Gradient_Swatch_11)"/><path d="m320 72c-16 8-64-8-64-8v-48s47.029 13.657 64 8z" fill="url(#New_Gradient_Swatch_13)"/><circle cx="256" cy="208" fill="url(#New_Gradient_Swatch_5)" r="24"/><path d="m296 272h48v40h-48z" fill="url(#New_Gradient_Swatch_11-2)"/><path d="m168 272h48v40h-48z" fill="url(#New_Gradient_Swatch_11-3)"/><path d="m432 440c0-48-24-56-40-56s-40 8-40 56c0 32-16 40-16 40h112s-16-8-16-40z" fill="url(#New_Gradient_Swatch_5-2)"/><circle cx="392" cy="368" fill="url(#New_Gradient_Swatch_5-3)" r="16"/><path d="m496 268h-91v-60a12 12 0 0 0 -5.515-10.1l-131.485-84.454v-33.453c17.709 4.462 62.3 14.983 64-7.993v-48a12 12 0 0 0 -15.8-11.384c-8.24 2.747-35.756-2.046-56.634-8.075-7.426-2.506-15.758 3.611-15.566 11.459v97.471l-130.519 84.454a12 12 0 0 0 -5.481 10.075v60h-92a12 12 0 0 0 -12 12v152a12 12 0 0 0 12 12h288a12 12 0 0 0 12-12v-68h4a12 12 0 0 0 0-24h-128a12 12 0 0 0 0 24h4v56h-64v-205.472l124.024-80.251 124.976 80.278v97.475a12 12 0 0 0 24 0v-20.03h79v64h-32a12 12 0 0 0 0 24h32v40h-8.24a12 12 0 0 0 0 24h20.24a12 12 0 0 0 12-12v-152a12 12 0 0 0 -12-12zm-468 24h80v64h-80zm264 128h-24v-56h24zm-72-56h24v56h-24zm-192 56v-40h80v40zm280-357.781c-6.642.75-30.585-4.035-40-7.111v-23.587c11.511 2.7 26.988 5.649 40 5.781z"/><path d="m256 244a36 36 0 1 0 -36-36 36.04 36.04 0 0 0 36 36zm0-48a12 12 0 1 1 -12 12 12.013 12.013 0 0 1 12-12z"/><path d="m296 324h48a12 12 0 0 0 12-12v-40a12 12 0 0 0 -12-12h-48a12 12 0 0 0 -12 12v40a12 12 0 0 0 12 12zm12-40h24v16h-24z"/><path d="m168 260a12 12 0 0 0 -12 12v40a12 12 0 0 0 12 12h48a12 12 0 0 0 12-12v-40a12 12 0 0 0 -12-12zm36 40h-24v-16h24z"/><path d="m456 468h-3.932c-2.826-2.94-8.068-10.721-8.068-28 0-36.113-12.591-53.266-26.14-61.272a28 28 0 1 0 -51.72 0c-13.549 8.006-26.14 25.159-26.14 61.272 0 17.279-5.242 25.06-8.068 28h-3.932a12 12 0 0 0 0 24h128a12 12 0 0 0 0-24zm-68-100a4 4 0 1 1 4 4 4 4 0 0 1 -4-4zm-28.588 100c2.7-7.135 4.588-16.309 4.588-28 0-44 21.075-44 28-44s28 0 28 44c0 11.691 1.893 20.865 4.588 28z"/></g></g></svg>