<svg id="Layer_1" enable-background="new 0 0 512 512" height="512" viewBox="0 0 512 512" width="512" xmlns="http://www.w3.org/2000/svg"><g><g><path d="m338.845 322.267 49.694.001c36.596 0 66.263 29.667 66.263 66.263v99.402c0 9.15-7.417 16.567-16.567 16.567h-364.47c-9.15 0-16.568-7.419-16.567-16.569l.015-99.398c0-36.596 29.667-66.263 66.263-66.263l49.694-.003z" fill="#368df6"/><path d="m388.539 322.268h-22.998c36.596 0 66.263 29.667 66.263 66.263v99.402c0 9.149-7.417 16.567-16.567 16.567h22.998c9.149 0 16.567-7.417 16.567-16.567v-99.402c0-36.596-29.667-66.263-66.263-66.263z" fill="#325be3"/><path d="m388.538 322.267c0 73.196-59.337 132.534-132.534 132.534s-132.534-59.337-132.534-132.534z" fill="#e9efff"/><path d="m365.541 322.267c0 69.321-53.224 126.202-121.035 132.032 3.79.326 7.624.502 11.499.502 73.196 0 132.534-59.337 132.534-132.534z" fill="#d3dcfb"/><path d="m206.31 239.447h99.4v133.872h-99.4z" fill="#ffb294"/><path d="m355.412 140.033c9.15 0 16.567 7.417 16.567 16.567v33.137c0 9.15-7.417 16.567-16.567 16.567l-198.8-.001c-9.15 0-16.567-7.417-16.567-16.567v-33.133c0-9.149 7.417-16.567 16.567-16.567z" fill="#ffb294"/><path d="m173.178 118.467.001 87.836c0 45.747 37.085 82.832 82.832 82.832s82.833-37.085 82.833-82.832v-87.836z" fill="#ffc2a3"/><path d="m239.437 402.667v10.717l-8.281 39.081c8.05 1.527 16.354 2.336 24.848 2.336s16.798-.809 24.848-2.336l-8.281-39.081v-10.717z" fill="#ffa438"/><path d="m315.845 118.467v87.836c0 41.843-31.032 76.419-71.333 82.02 3.761.522 7.596.813 11.5.813 45.747 0 82.833-37.085 82.833-82.832l.001-87.836h-23.001z" fill="#ffb294"/><path d="m289.137 383.011-16.566 30.373h-33.134l-16.566-30.373v-9.677l33.133-1.367 33.133 1.367z" fill="#ffc55e"/><path d="m173.171 60.512h165.674v62.955h-165.674z" fill="#336fe7"/><path d="m315.845 60.512h23v62.955h-23z" fill="#325be3"/><path d="m247.136 86.616-111.5-30.972c-8.088-2.247-8.088-13.715 0-15.962l111.5-30.972c5.802-1.612 11.934-1.612 17.736 0l111.5 30.972c8.089 2.247 8.089 13.715 0 15.962l-111.5 30.972c-5.802 1.612-11.934 1.612-17.736 0z" fill="#368df6"/><path d="m376.372 39.681-111.5-30.972c-5.802-1.612-11.934-1.612-17.736 0l-2.632.731 108.868 30.241c8.089 2.247 8.089 13.716 0 15.962l-108.868 30.242 2.632.731c5.802 1.612 11.934 1.612 17.736 0l111.5-30.972c8.088-2.247 8.088-13.716 0-15.963z" fill="#336fe7"/><g fill="#bec8f7"><path d="m206.31 305.7 49.693 66.267-42.885 14.295c-3.911 1.304-8.185-.467-10.028-4.154l-29.921-59.84z"/><path d="m305.698 305.7-49.694 66.267 42.885 14.295c3.911 1.304 8.185-.467 10.028-4.154l29.921-59.84z"/></g></g><g fill="#0c0a0b"><path d="m388.576 314.769c-.013 0-.025-.002-.038-.002-.007 0-.013.001-.019.001l-47.914-.001-27.394-13.695v-24.907c18.398-15.091 30.749-37.291 32.82-62.363h9.381c13.27 0 24.066-10.796 24.066-24.066v-33.136c0-13.27-10.796-24.066-24.066-24.066h-9.067v-9.066-50.956c0-.247-.013-.492-.037-.733l18.163-5.045v40.167c0 4.143 3.357 7.5 7.5 7.5s7.5-3.357 7.5-7.5v-44.382c6.305-2.235 10.468-8.067 10.468-14.857 0-7.176-4.646-13.287-11.56-15.208l-111.499-30.971c-7.116-1.977-14.637-1.977-21.751 0l-58.958 16.377c-3.991 1.108-6.328 5.243-5.219 9.233 1.109 3.992 5.244 6.327 9.234 5.22l58.958-16.377c4.487-1.247 9.23-1.247 13.721 0l111.499 30.972c.282.078.574.159.574.755s-.292.677-.573.755l-111.501 30.971c-4.487 1.249-9.231 1.249-13.721 0l-111.499-30.972c-.282-.078-.574-.159-.574-.755s.292-.677.574-.755l22.542-6.262c3.991-1.108 6.328-5.243 5.219-9.233-1.109-3.992-5.243-6.327-9.234-5.22l-22.543 6.262c-6.914 1.921-11.559 8.032-11.559 15.208s4.645 13.287 11.559 15.208l32.079 8.911c-.023.241-.037.484-.037.731v50.955c0 .052.007.103.008.155v8.915h-9.067c-13.27 0-24.066 10.796-24.066 24.066v33.133c0 13.271 10.796 24.066 24.066 24.066h9.382c2.07 25.071 14.42 47.271 32.817 62.361v24.902l-27.409 13.702-47.853.003c-.026 0-.051-.004-.077-.004-.054 0-.107.007-.161.008-40.596.091-73.596 33.142-73.596 73.758l-.015 99.397c-.001 6.429 2.502 12.474 7.047 17.02 4.546 4.547 10.59 7.051 17.019 7.051h258.355c4.143 0 7.5-3.357 7.5-7.5s-3.357-7.5-7.5-7.5h-201.149v-42.2c0-4.143-3.358-7.5-7.5-7.5s-7.5 3.357-7.5 7.5v42.2h-42.206c-2.422 0-4.699-.943-6.411-2.656-1.713-1.713-2.656-3.99-2.655-6.412l.015-99.398c0-29.937 22.509-54.7 51.489-58.296 3.639 64.53 51.169 117.511 113.141 129.506.086.021.168.049.256.068.185.039.369.063.554.088 8.382 1.571 17.021 2.402 25.852 2.402 8.833 0 17.474-.831 25.858-2.403.182-.025.363-.048.546-.086.086-.018.167-.046.252-.067 61.976-11.993 109.509-64.978 113.147-129.511 28.983 3.593 51.495 28.357 51.495 58.297v99.402c0 5-4.067 9.067-9.066 9.067h-42.198v-42.2c0-4.143-3.357-7.5-7.5-7.5s-7.5 3.357-7.5 7.5v42.199h-18.916c-4.143 0-7.5 3.357-7.5 7.5s3.357 7.5 7.5 7.5h76.114c13.271 0 24.066-10.797 24.066-24.067v-99.402c-.002-40.661-33.072-73.742-73.728-73.762zm-120.458 91.114h-24.228l-10.141-18.592 22.256-7.418 22.255 7.419zm.129-37.741 39.695-52.935 20.833 10.415-26.566 53.131c-.173.346-.581.519-.948.394zm87.165-220.608c4.999 0 9.066 4.067 9.066 9.066v33.137c0 4.999-4.067 9.066-9.066 9.066h-9.067v-51.27h9.067zm-110.284-53.692c3.558.988 7.216 1.482 10.876 1.482 3.658 0 7.318-.494 10.875-1.482l64.466-17.907v40.032h-150.674v-40.029zm-97.583 95.894v-33.133c0-4.999 4.067-9.066 9.066-9.066h9.067l.001 51.266h-9.068c-4.998-.001-9.066-4.068-9.066-9.067zm33.135 16.567-.001-75.336h150.666v75.336c0 41.538-33.794 75.332-75.333 75.332s-75.332-33.794-75.332-75.332zm75.332 90.332c15.234 0 29.596-3.796 42.199-10.483v17.031l-42.207 56.283-42.194-56.266v-17.05c12.604 6.688 26.967 10.485 42.202 10.485zm-51.947 18.573 39.696 52.934-33.014 11.005c-.369.123-.774-.046-.948-.394l-26.566-53.131zm-72.863 14.562 37.333-.002 27.847 55.693c2.723 5.448 8.324 8.717 14.171 8.717 1.646 0 3.311-.259 4.937-.801l3.8-1.267 12.235 22.43-6.137 28.962c-51.852-13.1-90.91-58.675-94.186-113.732zm108.927 116.527 5.385-25.414h20.979l5.385 25.414c-5.199.662-10.498 1.003-15.874 1.003s-10.675-.341-15.875-1.003zm46.49-2.794-6.137-28.962 12.235-22.43 3.799 1.267c1.626.542 3.291.801 4.936.801 5.847 0 11.448-3.268 14.172-8.716l27.849-55.695 37.333.001c-3.274 55.057-42.333 100.634-94.187 113.734z"/><path d="m222.871 172.383c4.142 0 7.5-3.357 7.5-7.5v-8.283c0-4.143-3.358-7.5-7.5-7.5s-7.5 3.357-7.5 7.5v8.283c0 4.143 3.357 7.5 7.5 7.5z"/><path d="m289.138 172.383c4.143 0 7.5-3.357 7.5-7.5v-8.283c0-4.143-3.357-7.5-7.5-7.5s-7.5 3.357-7.5 7.5v8.283c0 4.143 3.357 7.5 7.5 7.5z"/><path d="m239.437 229.333h33.133c4.143 0 7.5-3.357 7.5-7.5s-3.357-7.5-7.5-7.5h-33.133c-4.142 0-7.5 3.357-7.5 7.5s3.358 7.5 7.5 7.5z"/></g></g></svg>