<?xml version="1.0" encoding="iso-8859-1"?>
<!-- Generator: Adobe Illustrator 21.0.0, SVG Export Plug-In . SVG Version: 6.00 Build 0)  -->
<svg version="1.1" id="Capa_1" xmlns="http://www.w3.org/2000/svg" xmlns:xlink="http://www.w3.org/1999/xlink" x="0px" y="0px"
	 viewBox="0 0 512 512" style="enable-background:new 0 0 512 512;" xml:space="preserve">
<g>
	<g transform="translate(1 1)">
		<path style="fill:#607D8B;" d="M502.467,58.733v409.6c0,18.851-15.282,34.133-34.133,34.133H41.667
			c-18.851,0-34.133-15.282-34.133-34.133v-409.6H502.467z"/>
		<path style="fill:#CFD8DC;" d="M476.867,58.733v409.6c0,18.851-15.282,34.133-34.133,34.133H41.667
			c-18.851,0-34.133-15.282-34.133-34.133v-409.6H476.867z"/>
		<path style="fill:#1566C0;" d="M417.133,289.133c0,89.544-72.59,162.133-162.133,162.133c-4.267,0-8.619-0.171-12.8-0.512
			c-84.284-6.714-149.258-77.07-149.258-161.621S157.916,134.226,242.2,127.512c4.181-0.341,8.533-0.512,12.8-0.512
			c43,0,84.24,17.082,114.646,47.488C400.051,204.894,417.133,246.133,417.133,289.133z"/>
		<ellipse style="fill:#2296F3;" cx="242.2" cy="289.133" rx="149.333" ry="161.621"/>
		<path style="fill:#1566C0;" d="M502.467,41.667V75.8H7.533V41.667c0-18.851,15.282-34.133,34.133-34.133h426.667
			C487.185,7.533,502.467,22.815,502.467,41.667z"/>
		<path style="fill:#2296F3;" d="M476.867,41.667V75.8H7.533V41.667c0-18.851,15.282-34.133,34.133-34.133h401.067
			C461.585,7.533,476.867,22.815,476.867,41.667z"/>
	</g>
	<g>
		<path d="M42.667,512h426.667c23.552-0.028,42.638-19.114,42.667-42.667V42.667C511.972,19.114,492.886,0.028,469.333,0H42.667
			C19.114,0.028,0.028,19.114,0,42.667v426.667C0.028,492.886,19.114,511.972,42.667,512z M469.333,494.933H42.667
			c-14.138,0-25.6-11.462-25.6-25.6v-384h477.867v384C494.933,483.472,483.472,494.933,469.333,494.933z M42.667,17.067h426.667
			c14.138,0,25.6,11.462,25.6,25.6v25.6H17.067v-25.6C17.067,28.528,28.528,17.067,42.667,17.067z"/>
		<path d="M51.2,51.2h8.533c4.713,0,8.533-3.821,8.533-8.533s-3.821-8.533-8.533-8.533H51.2c-4.713,0-8.533,3.821-8.533,8.533
			S46.487,51.2,51.2,51.2z"/>
		<path d="M90.624,50.517c2.066,0.91,4.419,0.91,6.485,0c1.034-0.433,1.986-1.039,2.816-1.792c3.3-3.365,3.3-8.752,0-12.117
			c-0.83-0.753-1.782-1.359-2.816-1.792c-2.06-0.939-4.426-0.939-6.485,0c-1.034,0.433-1.986,1.039-2.816,1.792
			c-3.3,3.365-3.3,8.752,0,12.117C88.638,49.478,89.59,50.084,90.624,50.517z"/>
		<path d="M121.941,48.725c3.365,3.3,8.752,3.3,12.117,0c0.753-0.83,1.359-1.782,1.792-2.816c0.478-1.013,0.712-2.123,0.683-3.243
			c0.02-3.467-2.059-6.601-5.261-7.931c-3.202-1.329-6.89-0.59-9.331,1.872c-0.753,0.83-1.359,1.782-1.792,2.816
			c-0.911,2.066-0.911,4.419,0,6.485C120.582,46.943,121.188,47.895,121.941,48.725z"/>
		<path d="M170.667,51.2H460.8c4.713,0,8.533-3.821,8.533-8.533s-3.82-8.533-8.533-8.533H170.667c-4.713,0-8.533,3.821-8.533,8.533
			S165.954,51.2,170.667,51.2z"/>
		<path d="M381.756,175.155c-0.208-0.436-0.454-0.853-0.734-1.246c-0.389-0.362-0.815-0.682-1.271-0.956
			c-32.107-34.122-76.88-53.47-123.733-53.47s-91.626,19.348-123.733,53.47c-0.456,0.273-0.882,0.594-1.271,0.956
			c-0.28,0.393-0.526,0.81-0.734,1.246c-59.882,64.957-59.882,164.999,0,229.956c0.208,0.436,0.454,0.853,0.734,1.246
			c0.388,0.357,0.811,0.675,1.263,0.947c32.121,34.15,76.927,53.51,123.81,53.495s91.676-19.402,123.776-53.572
			c0.424-0.247,0.824-0.532,1.195-0.853c0.28-0.393,0.526-0.81,0.734-1.246c59.882-64.957,59.882-164.999,0-229.956L381.756,175.155
			z M373.53,388.821c-11.356-9.11-23.817-16.751-37.086-22.741c5.488-22.067,8.485-44.679,8.934-67.413h63.787
			C407.391,331.79,394.882,363.436,373.53,388.821z M102.835,298.667h63.787c0.45,22.734,3.447,45.347,8.934,67.413
			c-13.268,5.985-25.729,13.62-37.086,22.724C117.121,363.424,104.613,331.784,102.835,298.667z M138.47,191.445
			c11.356,9.11,23.817,16.751,37.086,22.741c-5.488,22.067-8.485,44.679-8.934,67.413h-63.787
			C104.609,248.476,117.118,216.83,138.47,191.445z M247.467,213.675c-17.403-0.771-34.604-4.047-51.072-9.728
			c11.657-35.601,30.157-60.749,51.072-66.227V213.675z M247.467,230.741V281.6H183.68c0.487-20.585,3.173-41.059,8.013-61.073
			c18.002,6.075,36.787,9.518,55.774,10.223V230.741z M247.467,298.667v50.85c-18.987,0.711-37.772,4.159-55.774,10.24
			c-4.841-20.02-7.527-40.499-8.013-61.09H247.467z M247.467,366.592v75.947c-20.915-5.478-39.415-30.626-51.072-66.227
			C212.863,370.634,230.064,367.36,247.467,366.592z M264.533,366.592c17.403,0.771,34.604,4.047,51.072,9.728
			c-11.657,35.601-30.157,60.749-51.072,66.227V366.592z M264.533,349.525v-50.859h63.787c-0.487,20.585-3.173,41.059-8.013,61.073
			c-18.002-6.075-36.787-9.518-55.774-10.223V349.525z M264.533,281.6v-50.85c18.987-0.711,37.772-4.159,55.774-10.24
			c4.841,20.02,7.527,40.499,8.013,61.09H264.533z M264.533,213.675v-75.947c20.915,5.478,39.415,30.626,51.072,66.227
			C299.137,209.633,281.936,212.907,264.533,213.675z M302.549,143.787c22.148,7.11,42.392,19.158,59.204,35.234
			c-9.314,7.306-19.428,13.53-30.148,18.551C325.542,177.911,315.669,159.636,302.549,143.787z M180.395,197.547
			c-10.72-5.022-20.834-11.245-30.148-18.551c16.812-16.076,37.056-28.124,59.204-35.234
			c-13.123,15.856-22.996,34.141-29.056,53.811V197.547z M180.395,382.669c6.066,19.652,15.939,37.919,29.056,53.76
			c-22.148-7.11-42.392-19.158-59.204-35.234c9.317-7.288,19.431-13.495,30.148-18.5V382.669z M331.605,382.669
			c10.72,5.022,20.834,11.245,30.148,18.551c-16.812,16.076-37.056,28.124-59.204,35.234c13.117-15.841,22.99-34.108,29.056-53.76
			V382.669z M345.378,281.6c-0.45-22.734-3.447-45.347-8.934-67.413c13.268-5.985,25.729-13.62,37.086-22.724
			c21.349,25.38,33.857,57.02,35.635,90.138H345.378z"/>
	</g>
</g>
<g>
</g>
<g>
</g>
<g>
</g>
<g>
</g>
<g>
</g>
<g>
</g>
<g>
</g>
<g>
</g>
<g>
</g>
<g>
</g>
<g>
</g>
<g>
</g>
<g>
</g>
<g>
</g>
<g>
</g>
</svg>
